<svg width="100" height="100" viewBox="0 0 100 100" fill="none" xmlns="http://www.w3.org/2000/svg">
<path fill-rule="evenodd" clip-rule="evenodd" d="M47.4963 2.78363C49.044 1.91514 50.9497 1.91514 52.495 2.78363C60.1422 7.07608 83.1544 19.9972 90.8036 24.2896C92.3513 25.1558 93.3042 26.7607 93.3042 28.4977C93.3042 37.0828 93.3042 62.9224 93.3042 71.5073C93.3042 73.2446 92.3513 74.8493 90.8036 75.7177C83.1565 80.0105 60.1445 92.9313 52.495 97.2237C50.9474 98.0922 49.0419 98.0922 47.4963 97.2237C39.8492 92.9313 16.8372 80.0105 9.18774 75.7177C7.64242 74.8493 6.68956 73.2467 6.68956 71.5097C6.68956 62.9245 6.68956 37.0852 6.68956 28.5C6.68956 26.7631 7.64242 25.1581 9.19008 24.2896C16.8349 19.9972 39.8515 7.07608 47.4963 2.78363Z" fill="#283593"/>
<path fill-rule="evenodd" clip-rule="evenodd" d="M7.38253 73.7204C6.77628 72.9089 6.68956 72.1384 6.68956 71.1011C6.68956 62.5662 6.68956 36.8748 6.68956 28.3378C6.68956 26.6097 7.64008 25.0141 9.18331 24.1524C16.8031 19.885 39.7377 7.03915 47.3575 2.76962C48.9005 1.90556 50.9906 1.92379 52.5338 2.78785C60.1536 7.0553 83.0107 19.7915 90.6304 24.0589C91.2458 24.4053 91.7153 24.8225 92.1349 25.372L7.38253 73.7204Z" fill="#5C6BC0"/>
<path fill-rule="evenodd" clip-rule="evenodd" d="M49.9968 18.0885C67.6093 18.0885 81.9074 32.3885 81.9074 50.0031C81.9074 67.6177 67.6093 81.9179 49.9968 81.9179C32.3845 81.9179 18.0861 67.6177 18.0861 50.0031C18.0861 32.3885 32.3845 18.0885 49.9968 18.0885ZM49.9968 34.0458C58.8017 34.0458 65.952 41.1948 65.952 50.0031C65.952 58.8093 58.8017 65.9604 49.9968 65.9604C41.1918 65.9604 34.0416 58.8093 34.0416 50.0031C34.0416 41.1948 41.1895 34.0458 49.9968 34.0458Z" fill="white"/>
<path fill-rule="evenodd" clip-rule="evenodd" d="M92.1301 25.394C93.3064 26.495 93.2834 28.1544 93.2834 29.4606C93.2834 38.112 93.2105 62.7182 93.304 71.3692C93.3131 72.2721 93.0144 73.2226 92.5678 73.9385L49.0691 50.0023L92.1301 25.394Z" fill="#3949AB"/>
</svg>
