<svg width="100" height="100" viewBox="0 0 100 100" fill="none" xmlns="http://www.w3.org/2000/svg">
<mask id="mask0_0_96" style="mask-type:luminance" maskUnits="userSpaceOnUse" x="3" y="3" width="94" height="94">
<path d="M3.06192 3.06219H96.9619V96.9622H3.06192V3.06219Z" fill="white"/>
</mask>
<g mask="url(#mask0_0_96)">
<path d="M3.06192 3.06219H96.9619V96.9622H3.06192V3.06219Z" fill="#FFD600"/>
</g>
<path d="M64.4571 73.3484C66.262 76.2802 68.2235 79.0893 72.3784 79.0893C75.8685 79.0893 77.6995 77.3549 77.6995 74.9552C77.6995 72.0833 75.8058 71.0635 71.9665 69.3917L69.8615 68.4943C63.7865 65.9174 59.7464 62.6883 59.7464 55.8674C59.7464 49.5812 64.5586 44.7976 72.0784 44.7976C77.4334 44.7976 81.2808 46.6521 84.056 51.5088L77.4987 55.7005C76.0563 53.1234 74.4964 52.1088 72.0784 52.1088C69.611 52.1088 68.0487 53.6659 68.0487 55.7005C68.0487 58.2148 69.6136 59.2323 73.2261 60.7893L75.331 61.6867C82.4909 64.7357 86.5287 67.85 86.5287 74.8508C86.5287 82.3943 80.5711 86.5284 72.574 86.5284C64.7516 86.5284 60.3097 82.6029 57.837 77.7435L64.4571 73.3484ZM34.2368 73.5622C35.5566 75.9255 37.5625 77.7435 40.4472 77.7435C43.2068 77.7435 44.7954 76.6531 44.7954 72.4146V44.795H53.4888V73.7503C53.4888 82.5323 48.3948 86.5284 40.9558 86.5284C34.2342 86.5284 29.3826 81.9742 27.4055 77.7435L34.2368 73.5622Z" fill="#000001"/>
</svg>
