<svg width="100" height="100" viewBox="0 0 100 100" fill="none" xmlns="http://www.w3.org/2000/svg">
<mask id="mask0_0_112" style="mask-type:luminance" maskUnits="userSpaceOnUse" x="3" y="3" width="70" height="70">
<path d="M3.20459 3.45959H72.6666V72.9994H3.20459V3.45959Z" fill="white"/>
</mask>
<g mask="url(#mask0_0_112)">
<mask id="mask1_0_112" style="mask-type:luminance" maskUnits="userSpaceOnUse" x="3" y="3" width="70" height="70">
<path d="M49.682 3.44873C25.9294 3.44873 27.4125 13.7498 27.4125 13.7498L27.4388 24.4219H50.1033V27.6261H18.4364C18.4364 27.6261 3.23798 25.9021 3.23798 49.8696C3.23772 73.8388 16.5036 72.9888 16.5036 72.9888H24.4203V61.8654C24.4203 61.8654 23.9934 48.5982 37.4742 48.5982H59.9546C59.9546 48.5982 72.5828 48.8034 72.5828 36.3912V15.8685C72.5828 15.8685 74.5023 3.44873 49.682 3.44873ZM37.183 10.625C39.4377 10.625 41.2596 12.4479 41.2596 14.7032C41.2596 16.9586 39.4377 18.7813 37.183 18.7813C34.9276 18.7813 33.1052 16.9586 33.1052 14.7032C33.1052 12.4479 34.9276 10.625 37.183 10.625Z" fill="white"/>
</mask>
<g mask="url(#mask1_0_112)">
<path d="M3.23706 3.45923V73.8392H74.5016V3.45923H3.23706Z" fill="url(#paint0_linear_0_112)"/>
</g>
</g>
<mask id="mask2_0_112" style="mask-type:luminance" maskUnits="userSpaceOnUse" x="27" y="26" width="70" height="71">
<path d="M27.4 26.9327H96.8V96.5593H27.4V26.9327Z" fill="white"/>
</mask>
<g mask="url(#mask2_0_112)">
<mask id="mask3_0_112" style="mask-type:luminance" maskUnits="userSpaceOnUse" x="27" y="26" width="70" height="71">
<path d="M50.3556 96.5336C74.1061 96.5336 72.6223 86.2307 72.6223 86.2307L72.5968 75.5578H49.9306V72.3555H81.5981C81.5981 72.3555 96.7978 74.0776 96.7978 50.1117C96.7978 26.143 83.5324 26.993 83.5324 26.993H75.6155V38.1149C75.6155 38.1149 76.0405 51.3834 62.5624 51.3834H40.0796C40.0796 51.3834 27.4509 51.1781 27.4509 63.5914V84.113C27.4509 84.113 25.5332 96.5336 50.3556 96.5336ZM62.8517 89.356C60.5988 89.356 58.7744 87.5313 58.7744 85.2781C58.7744 83.0211 60.5988 81.2 62.8517 81.2C65.1085 81.2 66.9293 83.0211 66.9293 85.2781C66.9293 87.5313 65.1085 89.356 62.8517 89.356Z" fill="white"/>
</mask>
<g mask="url(#mask3_0_112)">
<path d="M25.5337 26.1424V96.533H96.7982V26.1424H25.5337Z" fill="url(#paint1_linear_0_112)"/>
</g>
</g>
<defs>
<linearGradient id="paint0_linear_0_112" x1="3.5265" y1="3.16678" x2="74.7095" y2="73.6294" gradientUnits="userSpaceOnUse">
<stop stop-color="#387EB8"/>
<stop offset="0.125" stop-color="#387EB8"/>
<stop offset="0.140625" stop-color="#387EB8"/>
<stop offset="0.15625" stop-color="#387DB7"/>
<stop offset="0.171875" stop-color="#387DB6"/>
<stop offset="0.1875" stop-color="#387CB5"/>
<stop offset="0.203125" stop-color="#387CB4"/>
<stop offset="0.21875" stop-color="#387BB3"/>
<stop offset="0.234375" stop-color="#387BB2"/>
<stop offset="0.25" stop-color="#387AB1"/>
<stop offset="0.265625" stop-color="#387AB1"/>
<stop offset="0.28125" stop-color="#3879B0"/>
<stop offset="0.296875" stop-color="#3879AF"/>
<stop offset="0.3125" stop-color="#3878AE"/>
<stop offset="0.328125" stop-color="#3778AD"/>
<stop offset="0.34375" stop-color="#3777AC"/>
<stop offset="0.359375" stop-color="#3777AB"/>
<stop offset="0.375" stop-color="#3776AB"/>
<stop offset="0.390625" stop-color="#3776AA"/>
<stop offset="0.40625" stop-color="#3775A9"/>
<stop offset="0.421875" stop-color="#3775A8"/>
<stop offset="0.4375" stop-color="#3774A7"/>
<stop offset="0.453125" stop-color="#3774A6"/>
<stop offset="0.46875" stop-color="#3773A5"/>
<stop offset="0.484375" stop-color="#3773A4"/>
<stop offset="0.494335" stop-color="#3772A4"/>
<stop offset="0.5" stop-color="#3772A3"/>
<stop offset="0.505665" stop-color="#3772A3"/>
<stop offset="0.515625" stop-color="#3771A2"/>
<stop offset="0.53125" stop-color="#3771A2"/>
<stop offset="0.546875" stop-color="#3771A1"/>
<stop offset="0.5625" stop-color="#3770A0"/>
<stop offset="0.578125" stop-color="#37709F"/>
<stop offset="0.59375" stop-color="#376F9E"/>
<stop offset="0.609375" stop-color="#376F9D"/>
<stop offset="0.625" stop-color="#376E9D"/>
<stop offset="0.640625" stop-color="#366E9C"/>
<stop offset="0.65625" stop-color="#366D9B"/>
<stop offset="0.671875" stop-color="#366D9A"/>
<stop offset="0.6875" stop-color="#366C99"/>
<stop offset="0.703125" stop-color="#366C98"/>
<stop offset="0.71875" stop-color="#366B97"/>
<stop offset="0.734375" stop-color="#366B97"/>
<stop offset="0.75" stop-color="#366A96"/>
<stop offset="0.765625" stop-color="#366A95"/>
<stop offset="0.78125" stop-color="#366994"/>
<stop offset="0.8125" stop-color="#366994"/>
<stop offset="0.875" stop-color="#366994"/>
<stop offset="1" stop-color="#366994"/>
</linearGradient>
<linearGradient id="paint1_linear_0_112" x1="25.1521" y1="26.5459" x2="97.9294" y2="95.3364" gradientUnits="userSpaceOnUse">
<stop stop-color="#FFE052"/>
<stop offset="0.125" stop-color="#FFE052"/>
<stop offset="0.1875" stop-color="#FFE052"/>
<stop offset="0.21875" stop-color="#FFE052"/>
<stop offset="0.234375" stop-color="#FFDF51"/>
<stop offset="0.25" stop-color="#FFDF51"/>
<stop offset="0.265625" stop-color="#FFDE50"/>
<stop offset="0.28125" stop-color="#FFDD4F"/>
<stop offset="0.296875" stop-color="#FFDD4E"/>
<stop offset="0.3125" stop-color="#FFDC4E"/>
<stop offset="0.328125" stop-color="#FFDB4D"/>
<stop offset="0.34375" stop-color="#FFDB4C"/>
<stop offset="0.359375" stop-color="#FFDA4B"/>
<stop offset="0.375" stop-color="#FFD94B"/>
<stop offset="0.390625" stop-color="#FFD94A"/>
<stop offset="0.40625" stop-color="#FFD849"/>
<stop offset="0.421875" stop-color="#FFD748"/>
<stop offset="0.4375" stop-color="#FFD748"/>
<stop offset="0.453125" stop-color="#FFD647"/>
<stop offset="0.46875" stop-color="#FFD546"/>
<stop offset="0.482837" stop-color="#FFD545"/>
<stop offset="0.484375" stop-color="#FFD445"/>
<stop offset="0.5" stop-color="#FFD445"/>
<stop offset="0.515625" stop-color="#FFD444"/>
<stop offset="0.517163" stop-color="#FFD343"/>
<stop offset="0.53125" stop-color="#FFD343"/>
<stop offset="0.546875" stop-color="#FFD242"/>
<stop offset="0.5625" stop-color="#FFD242"/>
<stop offset="0.578125" stop-color="#FFD141"/>
<stop offset="0.59375" stop-color="#FFD040"/>
<stop offset="0.609375" stop-color="#FFD03F"/>
<stop offset="0.625" stop-color="#FFCF3F"/>
<stop offset="0.640625" stop-color="#FFCE3E"/>
<stop offset="0.65625" stop-color="#FFCE3D"/>
<stop offset="0.671875" stop-color="#FFCD3C"/>
<stop offset="0.6875" stop-color="#FFCC3C"/>
<stop offset="0.703125" stop-color="#FFCC3B"/>
<stop offset="0.71875" stop-color="#FFCB3A"/>
<stop offset="0.734375" stop-color="#FFCA39"/>
<stop offset="0.75" stop-color="#FFCA39"/>
<stop offset="0.765625" stop-color="#FFC938"/>
<stop offset="0.78125" stop-color="#FFC837"/>
<stop offset="0.796875" stop-color="#FFC836"/>
<stop offset="0.8125" stop-color="#FFC735"/>
<stop offset="0.828125" stop-color="#FFC635"/>
<stop offset="0.84375" stop-color="#FFC634"/>
<stop offset="0.859375" stop-color="#FFC533"/>
<stop offset="0.875" stop-color="#FFC432"/>
<stop offset="0.890625" stop-color="#FFC432"/>
<stop offset="0.90625" stop-color="#FFC331"/>
<stop offset="0.9375" stop-color="#FFC331"/>
<stop offset="1" stop-color="#FFC331"/>
</linearGradient>
</defs>
</svg>
