<svg width="100" height="100" viewBox="0 0 100 100" fill="none" xmlns="http://www.w3.org/2000/svg">
<mask id="mask0_0_155" style="mask-type:luminance" maskUnits="userSpaceOnUse" x="3" y="3" width="95" height="94">
<path d="M3 3H97.75V96.3333H3V3Z" fill="white"/>
</mask>
<g mask="url(#mask0_0_155)">
<path d="M50.375 3.01654C24.2122 3.01654 3 24.2288 3 50.3915C3 72.5908 18.2865 91.1658 38.8945 96.3059C38.6734 95.6663 38.5312 94.9241 38.5312 94.0043V85.9069C36.6086 85.9069 33.3872 85.9069 32.5779 85.9069C29.3365 85.9069 26.4547 84.5134 25.057 81.9236C23.5055 79.0454 23.237 74.6436 19.3917 71.9512C18.2508 71.0551 19.1193 70.0324 20.4341 70.1707C22.862 70.8577 24.8755 72.5236 26.7703 74.9949C28.6575 77.4704 29.5458 78.0309 33.0713 78.0309C34.7807 78.0309 37.3391 77.9322 39.7471 77.5533C41.0422 74.2647 43.2807 71.2366 46.0164 69.8074C30.2406 68.1848 22.712 60.3363 22.712 49.6809C22.712 45.0934 24.6661 40.6561 27.9865 36.9173C26.8969 33.2064 25.5268 25.6382 28.4049 22.7561C35.5031 22.7561 39.7945 27.3595 40.825 28.603C44.3622 27.391 48.2471 26.704 52.3292 26.704C56.4193 26.704 60.3198 27.391 63.8651 28.6108C64.8836 27.3751 69.1789 22.7561 76.293 22.7561C79.1831 25.6421 77.7971 33.2418 76.6958 36.9449C79.9963 40.6757 81.9385 45.1014 81.9385 49.6809C81.9385 60.3285 74.4219 68.173 58.6695 69.8035C63.0044 72.0655 66.1667 78.4217 66.1667 83.2105V94.0043C66.1667 94.4147 66.0758 94.7108 66.0284 95.0621C84.4891 88.5915 97.75 71.0629 97.75 50.3915C97.75 24.2288 76.5378 3.01654 50.375 3.01654Z" fill="black"/>
</g>
</svg>
