<svg width="100" height="100" viewBox="0 0 100 100" fill="none" xmlns="http://www.w3.org/2000/svg">
<mask id="mask0_0_103" style="mask-type:luminance" maskUnits="userSpaceOnUse" x="7" y="2" width="86" height="96">
<path d="M7.91167 2.19891H92.1117V97.7989H7.91167V2.19891Z" fill="white"/>
</mask>
<g mask="url(#mask0_0_103)">
<path d="M15.5551 88.2115L7.88763 2.24304H92.1353L84.4619 88.1995L49.9577 97.7571L15.5551 88.2115Z" fill="#E44D26"/>
</g>
<path d="M77.8901 82.7259L84.45 9.27332H50.0117V90.4538L77.8901 82.7259Z" fill="#F16529"/>
<path d="M49.9757 19.816H23.5632L26.4088 51.7007H50.0117V41.158H36.0559L35.0913 30.3616H50.0117V19.816H49.9757ZM50.0117 68.5056L49.9669 68.5176L38.2205 65.3478L37.4742 56.9392H26.8804L28.3585 73.4936L49.9637 79.4634L50.0117 79.4483V68.5056Z" fill="#EBEBEB"/>
<path d="M49.9758 51.7007H62.964L61.7698 65.3715L50.0057 68.5444V79.514L71.6289 73.5233L74.5252 41.152H50.0117L49.9758 51.7007ZM76.1435 22.6457L76.3943 19.816H49.9698V30.3585H75.4448L75.6539 27.9887L76.1435 22.6457Z" fill="white"/>
</svg>
