<svg width="100" height="100" viewBox="0 0 100 100" fill="none" xmlns="http://www.w3.org/2000/svg">
<mask id="mask0_0_87" style="mask-type:luminance" maskUnits="userSpaceOnUse" x="7" y="2" width="86" height="96">
<path d="M7.54449 2.56378H92.4445V97.4138H7.54449V2.56378Z" fill="white"/>
</mask>
<g mask="url(#mask0_0_87)">
<path d="M92.4318 2.56366H7.55731L15.0461 87.4296L49.9946 97.4137L84.943 87.4296L92.4318 2.56366Z" fill="#0277BD"/>
</g>
<path d="M49.9956 10.0535V89.6775L77.9542 81.69L84.1951 10.0535H49.9956Z" fill="#039BE5"/>
<path d="M72.712 22.5334H49.9956V32.5175H62.2276L61.4786 42.5016H49.9956V52.486H60.9794L60.2305 63.7183L49.9956 67.2126V77.6961L69.7164 71.2063L71.4638 42.5016L72.712 22.5334Z" fill="white"/>
<path d="M49.9955 22.5334V32.5175H27.7783L27.0294 22.5334H49.9955ZM38.5125 42.5016L39.0117 52.486H49.9955V42.5016H38.5125ZM39.5109 57.4779H29.5257L30.2747 71.2063L49.9955 77.6961V67.2126L39.7606 63.7183L39.5109 57.4779Z" fill="#EEEEEE"/>
</svg>
