<svg width="95" height="95" viewBox="0 0 95 95" fill="none" xmlns="http://www.w3.org/2000/svg">
<g filter="url(#filter0_f_0_17)">
<path d="M81.2982 16.4015L32.7414 4.26698C25.5214 2.46268 18.2058 6.85297 16.4015 14.073L4.26697 62.6297C2.46266 69.8497 6.85295 77.1653 14.0729 78.9696L62.6297 91.1042C69.8497 92.9085 77.1653 88.5182 78.9696 81.2982L91.1041 32.7414C92.9084 25.5214 88.5182 18.2058 81.2982 16.4015Z" fill="#000058"/>
<path d="M40.1903 52.5196L29.8442 49.9341L25.0363 57.8154C24.9392 58.0664 24.7449 58.1554 24.4535 58.0826L19.5962 56.8687C19.2723 56.7878 19.1995 56.5976 19.3775 56.298L35.9018 30.031C36.2823 29.4724 36.6343 28.6143 36.958 27.4566C37.0066 27.2623 37.128 27.1894 37.3223 27.238L44.1225 28.9374C44.3168 28.9859 44.4099 29.0952 44.4018 29.2652L47.052 63.2656C47.0763 63.5813 46.959 63.7068 46.6999 63.6421L41.2597 62.2826C41.0331 62.2259 40.8954 62.0883 40.8468 61.8697L40.1903 52.5196ZM32.1632 45.6109L40.2263 47.6259C40.2019 46.8974 40.129 45.4685 40.0073 43.3395C39.8857 41.2104 39.7803 39.223 39.6911 37.3772C39.6019 35.5315 39.5532 34.0743 39.545 33.0057L39.4964 32.9936C38.7194 34.5885 36.275 38.7942 32.1632 45.6109Z" fill="#9999F9"/>
<path d="M65.6838 56.9295L56.7949 54.7081C56.3093 56.7887 56.4836 58.5696 57.3175 60.051C58.1515 61.5324 59.7018 62.5563 61.9685 63.1228C64.041 63.6407 65.9758 63.7458 67.7729 63.438C67.9996 63.357 68.0805 63.446 68.0158 63.7051L67.1297 67.251C67.073 67.4776 66.9273 67.6476 66.6926 67.761C64.6364 68.1417 62.2645 67.9962 59.5768 67.3245C55.5938 66.3291 52.9464 64.4634 51.6347 61.7273C50.3635 58.9669 50.1568 55.8704 51.0146 52.4379C51.9048 48.8758 53.6208 46.1394 56.1625 44.2287C58.7043 42.3179 61.659 41.7834 65.0268 42.625C68.2326 43.4261 70.3658 45.0086 71.4265 47.3723C72.5196 49.7442 72.7344 52.2578 72.0708 54.9131C71.739 56.2408 71.4396 57.1637 71.1725 57.6818C71.0834 57.9004 70.9215 57.9976 70.6868 57.9733C69.8125 57.8924 68.1448 57.5445 65.6838 56.9295ZM57.7296 50.9679L64.1412 52.5702C65.5336 52.9182 66.3351 53.0841 66.5456 53.0679C66.6103 52.9464 66.6832 52.7238 66.7641 52.4C67.0716 51.1695 67.0229 49.9875 66.618 48.8542C66.2132 47.7209 65.2822 46.9722 63.825 46.608C62.4002 46.2519 61.1697 46.4949 60.1336 47.3369C59.0974 48.179 58.2961 49.3893 57.7296 50.9679Z" fill="#9999F9"/>
</g>
<defs>
<filter id="filter0_f_0_17" x="-2.00002" y="-2" width="99.3711" height="99.3711" filterUnits="userSpaceOnUse" color-interpolation-filters="sRGB">
<feFlood flood-opacity="0" result="BackgroundImageFix"/>
<feBlend mode="normal" in="SourceGraphic" in2="BackgroundImageFix" result="shape"/>
<feGaussianBlur stdDeviation="1.5" result="effect1_foregroundBlur_0_17"/>
</filter>
</defs>
</svg>
