<svg width="105" height="105" viewBox="0 0 105 105" fill="none" xmlns="http://www.w3.org/2000/svg">
<g clip-path="url(#clip0_0_28)" filter="url(#filter0_f_0_28)">
<path d="M45.2878 58.2321L36.0302 70.8193C35.0774 72.101 33.6572 72.9549 32.0784 73.1956C30.4996 73.4362 28.8895 73.0442 27.5981 72.1046L15.0109 62.847C13.7292 61.8941 12.8752 60.474 12.6346 58.8952C12.3939 57.3163 12.786 55.7063 13.7256 54.4149L22.9832 41.8277C23.936 40.546 25.3562 39.692 26.935 39.4514C28.5138 39.2107 30.1239 39.6028 31.4153 40.5424L44.0025 49.8C45.2842 50.7528 46.1382 52.1729 46.3788 53.7518C46.6195 55.3306 46.2274 56.9406 45.2878 58.2321ZM17.5018 57.1922C17.2985 57.482 17.2149 57.839 17.2682 58.1889C17.3215 58.5388 17.5078 58.8547 17.7881 59.0708L30.3754 68.3284C30.6625 68.5395 31.0217 68.628 31.374 68.5743C31.7263 68.5206 32.0429 68.3291 32.254 68.042L41.5116 55.4548C41.7228 55.1677 41.8112 54.8085 41.7575 54.4562C41.7038 54.1039 41.5123 53.7873 41.2252 53.5761L28.638 44.3186C28.3509 44.1074 27.9917 44.019 27.6394 44.0727C27.2871 44.1264 26.9705 44.3178 26.7594 44.6049L17.5018 57.1922Z" fill="#F3F3F3"/>
<path d="M65.0989 31.2955L55.8414 43.8827C54.8885 45.1644 53.4684 46.0183 51.8896 46.259C50.3107 46.4996 48.7007 46.1076 47.4093 45.1679L34.822 35.9104C33.5403 34.9575 32.6864 33.5374 32.4457 31.9586C32.2051 30.3797 32.5972 28.7697 33.5368 27.4783L42.7944 14.891C43.7472 13.6093 45.1673 12.7554 46.7461 12.5148C48.325 12.2741 49.935 12.6662 51.2264 13.6058L63.8137 22.8634C65.0954 23.8162 65.9493 25.2363 66.19 26.8152C66.4306 28.394 66.0385 30.004 65.0989 31.2955ZM37.313 30.2555C37.1018 30.5426 37.0133 30.9019 37.067 31.2542C37.1207 31.6065 37.3122 31.923 37.5993 32.1342L50.1865 41.3918C50.4736 41.6029 50.8329 41.6914 51.1852 41.6377C51.5375 41.584 51.854 41.3925 52.0652 41.1054L61.3228 28.5182C61.5339 28.2311 61.6224 27.8719 61.5687 27.5196C61.515 27.1672 61.3235 26.8507 61.0364 26.6395L48.4492 17.382C48.1621 17.1708 47.8029 17.0824 47.4505 17.1361C47.0982 17.1898 46.7817 17.3812 46.5705 17.6683L37.313 30.2555Z" fill="#F3F3F3"/>
<path d="M71.3182 77.3767L62.0606 89.964C61.1077 91.2457 59.6876 92.0996 58.1088 92.3402C56.5299 92.5809 54.9199 92.1888 53.6285 91.2492L41.0413 81.9916C39.7596 81.0388 38.9056 79.6187 38.665 78.0398C38.4243 76.461 38.8164 74.851 39.756 73.5595L49.0136 60.9723C49.9664 59.6906 51.3865 58.8367 52.9654 58.596C54.5442 58.3554 56.1542 58.7474 57.4457 59.6871L70.0329 68.9446C71.3146 69.8975 72.1685 71.3176 72.4092 72.8964C72.6498 74.4753 72.2578 76.0853 71.3182 77.3767ZM43.5322 76.3368C43.321 76.6239 43.2326 76.9831 43.2863 77.3354C43.34 77.6878 43.5314 78.0043 43.8185 78.2155L56.4058 87.473C56.6956 87.6763 57.0526 87.76 57.4025 87.7066C57.7524 87.6533 58.0683 87.4671 58.2844 87.1867L67.542 74.5995C67.7531 74.3124 67.8416 73.9531 67.7879 73.6008C67.7342 73.2485 67.5427 72.932 67.2556 72.7208L54.6684 63.4632C54.3813 63.2521 54.0221 63.1636 53.6698 63.2173C53.3175 63.271 53.0009 63.4625 52.7897 63.7496L43.5322 76.3368Z" fill="#F3F3F3"/>
<path d="M91.1293 50.4401L81.8717 63.0273C80.9189 64.309 79.4988 65.163 77.9199 65.4036C76.3411 65.6443 74.7311 65.2522 73.4396 64.3126L60.8524 55.055C59.5707 54.1022 58.7168 52.6821 58.4761 51.1032C58.2355 49.5244 58.6276 47.9144 59.5672 46.6229L68.8247 34.0357C69.7776 32.754 71.1977 31.9001 72.7765 31.6594C74.3554 31.4188 75.9654 31.8108 77.2568 32.7504L89.8441 42.008C91.1258 42.9609 91.9797 44.381 92.2203 45.9598C92.461 47.5387 92.0689 49.1487 91.1293 50.4401ZM63.3433 49.4002C63.1322 49.6873 63.0437 50.0465 63.0974 50.3988C63.1511 50.7511 63.3426 51.0677 63.6297 51.2789L76.2169 60.5364C76.504 60.7476 76.8632 60.836 77.2155 60.7823C77.5679 60.7286 77.8844 60.5372 78.0956 60.2501L87.3531 47.6628C87.5643 47.3757 87.6527 47.0165 87.599 46.6642C87.5453 46.3119 87.3539 45.9953 87.0668 45.7842L74.4796 36.5266C74.1925 36.3155 73.8332 36.227 73.4809 36.2807C73.1286 36.3344 72.8121 36.5259 72.6009 36.813L63.3433 49.4002Z" fill="#F3F3F3"/>
</g>
<defs>
<filter id="filter0_f_0_28" x="-4" y="-4.00003" width="112.855" height="112.855" filterUnits="userSpaceOnUse" color-interpolation-filters="sRGB">
<feFlood flood-opacity="0" result="BackgroundImageFix"/>
<feBlend mode="normal" in="SourceGraphic" in2="BackgroundImageFix" result="shape"/>
<feGaussianBlur stdDeviation="2" result="effect1_foregroundBlur_0_28"/>
</filter>
<clipPath id="clip0_0_28">
<rect width="75" height="75" fill="white" transform="translate(0 60.4186) rotate(-53.6665)"/>
</clipPath>
</defs>
</svg>
