<svg width="127" height="127" viewBox="0 0 127 127" fill="none" xmlns="http://www.w3.org/2000/svg">
<g clip-path="url(#clip0_0_20)" filter="url(#filter0_f_0_20)">
<path d="M91.6109 76.1961C91.0281 76.6613 90.2845 76.8761 89.5434 76.7932C89.1733 76.7392 88.816 76.6181 88.4893 76.4358C88.1664 76.2719 87.8827 76.0401 87.6578 75.7563C87.4237 75.4699 87.2502 75.1391 87.1475 74.7838C87.0449 74.4284 87.0154 74.056 87.0607 73.6889C87.0967 73.32 87.1999 72.9607 87.3653 72.6289C87.6484 72.1501 88.0621 71.762 88.558 71.51C89.0539 71.258 89.6113 71.1526 90.1649 71.2061C90.533 71.2426 90.8898 71.3533 91.2139 71.5315C91.538 71.7097 91.8226 71.9517 92.0506 72.243C92.278 72.5248 92.4418 72.8525 92.5307 73.2035C92.6367 73.5623 92.6764 73.9374 92.6477 74.3104C92.5657 75.0516 92.1928 75.7298 91.6109 76.1961Z" fill="#F3F3F3"/>
<path d="M83.9985 66.6783C83.416 67.1442 82.6723 67.3596 81.9309 67.2772C81.1896 67.1947 80.5113 66.8211 80.0454 66.2386C79.8108 65.9471 79.6394 65.6101 79.5419 65.2488C79.4328 64.9006 79.4009 64.5329 79.4483 64.1712C79.5494 63.4385 79.9277 62.7726 80.5052 62.3106C81.0828 61.8487 81.8157 61.626 82.5526 61.6884C82.9159 61.7216 83.2676 61.8336 83.5833 62.0165C83.9143 62.191 84.2055 62.4323 84.4383 62.7252C84.6619 63.0095 84.8252 63.3363 84.9184 63.6858C85.0338 64.0426 85.0737 64.4196 85.0354 64.7927C84.9534 65.5338 84.5805 66.2121 83.9985 66.6783Z" fill="#F3F3F3"/>
<path d="M104.126 82.1771L72.7315 107.286C70.8285 108.808 68.399 109.512 65.9772 109.242C63.5555 108.973 61.34 107.752 59.818 105.849L20.9368 57.2355C19.4149 55.3326 18.7112 52.903 18.9806 50.4813C19.25 48.0596 20.4704 45.844 22.3733 44.3221L53.7673 19.2133C55.6703 17.6913 58.0998 16.9877 60.5216 17.257C62.9433 17.5264 65.1588 18.7468 66.6808 20.6497L105.562 69.2637C107.084 71.1666 107.788 73.5962 107.518 76.0179C107.249 78.4396 106.028 80.6552 104.126 82.1771ZM25.8866 48.7149C25.1657 49.3532 24.7179 50.2444 24.636 51.2038C24.5541 52.1632 24.8444 53.1174 25.4468 53.8686L64.2108 102.336C64.8273 103.034 65.6815 103.478 66.607 103.581C67.5326 103.684 68.4633 103.439 69.2181 102.893L100.612 77.7843C101.31 77.1678 101.754 76.3137 101.857 75.3881C101.96 74.4626 101.715 73.5318 101.169 72.777L62.288 24.1631C61.6875 23.4104 60.8204 22.9175 59.8665 22.7865C58.9125 22.6556 57.9447 22.8966 57.1636 23.4597L25.8866 48.7149Z" fill="#F3F3F3"/>
<path d="M74.4202 89.9451C73.8377 90.411 73.094 90.6264 72.3526 90.5439C71.6113 90.4615 70.933 90.0879 70.4671 89.5053L62.8548 79.9875C62.3889 79.405 62.1735 78.6613 62.256 77.9199C62.3385 77.1786 62.712 76.5003 63.2946 76.0344C63.8771 75.5685 64.6208 75.3531 65.3622 75.4356C66.1035 75.5181 66.7818 75.8917 67.2477 76.4742L74.86 85.992C75.3164 86.5782 75.5258 87.3195 75.4437 88.0579C75.3616 88.7963 74.9943 89.4735 74.4202 89.9451Z" fill="#F3F3F3"/>
<path d="M75.3468 81.377L65.829 88.9893C65.2465 89.4552 64.5027 89.6706 63.7614 89.5881C63.02 89.5056 62.3418 89.132 61.8759 88.5495C61.41 87.967 61.1946 87.2233 61.2771 86.4819C61.3595 85.7406 61.7331 85.0623 62.3156 84.5964L71.8334 76.9841C72.416 76.5182 73.1597 76.3028 73.9011 76.3853C74.6424 76.4678 75.3206 76.8414 75.7865 77.4239C76.2524 78.0064 76.4678 78.7501 76.3854 79.4915C76.3029 80.2328 75.9293 80.9111 75.3468 81.377Z" fill="#F3F3F3"/>
<path d="M85.6816 48.9098L44.3305 81.9822C43.748 82.4481 43.0042 82.6635 42.2629 82.5811C41.5215 82.4986 40.8433 82.125 40.3774 81.5425C39.9115 80.96 39.6961 80.2162 39.7786 79.4749C39.861 78.7335 40.2346 78.0553 40.8172 77.5894L82.1683 44.517C82.7508 44.0511 83.4946 43.8357 84.2359 43.9181C84.9773 44.0006 85.6555 44.3742 86.1214 44.9567C86.5873 45.5392 86.8027 46.283 86.7202 47.0243C86.6378 47.7657 86.2642 48.4439 85.6816 48.9098Z" fill="#F3F3F3"/>
</g>
<defs>
<filter id="filter0_f_0_20" x="-4" y="-3.99997" width="134.499" height="134.499" filterUnits="userSpaceOnUse" color-interpolation-filters="sRGB">
<feFlood flood-opacity="0" result="BackgroundImageFix"/>
<feBlend mode="normal" in="SourceGraphic" in2="BackgroundImageFix" result="shape"/>
<feGaussianBlur stdDeviation="2" result="effect1_foregroundBlur_0_20"/>
</filter>
<clipPath id="clip0_0_20">
<rect width="90" height="90" fill="white" transform="translate(0 56.2138) rotate(-38.6527)"/>
</clipPath>
</defs>
</svg>
