<svg width="97" height="114" viewBox="0 0 97 114" fill="none" xmlns="http://www.w3.org/2000/svg">
<g clip-path="url(#clip0_0_81)" filter="url(#filter0_f_0_81)">
<path d="M80.0883 56.4202L78.8492 60.1179L82.5469 61.357L83.786 57.6593L85.6349 58.2788L84.3958 61.9765L88.0935 63.2156L87.474 65.0645L83.7762 63.8254L82.5373 67.5228L86.235 68.7619L85.6154 70.6107L81.9177 69.3717L80.6786 73.0694L78.8298 72.4498L80.0689 68.7521L76.3712 67.513L75.1321 71.2107L73.2832 70.5912L74.5223 66.8935L70.8249 65.6545L71.4444 63.8056L75.1418 65.0446L76.3808 61.3472L72.6834 60.1082L73.303 58.2593L77.0004 59.4983L78.2395 55.8006L80.0883 56.4202ZM81.9275 63.2056L78.2298 61.9665L76.9907 65.6642L80.6884 66.9033L81.9275 63.2056Z" fill="#8B49ED"/>
<path d="M66.1582 31.0965C75.8029 34.3284 82.4681 42.3878 84.3695 51.6849L84.3507 51.5952L70.8135 54.3263C69.8464 49.7919 66.6041 45.8639 61.9199 44.2356L61.7719 44.1851C54.6024 41.7826 46.8422 45.6474 44.4397 52.8169C43.6801 55.0759 43.5263 57.4946 43.9935 59.8316C44.9222 64.488 48.246 68.5325 53.0717 70.1496C57.9272 71.7766 63.052 70.526 66.6012 67.3237L66.5154 67.4003L75.6464 77.761C68.5986 83.9859 58.5437 86.4245 48.9764 83.3343L48.6855 83.2386C39.0104 79.9965 32.3322 71.8967 30.4559 62.5622C29.54 58.0053 29.7677 53.1546 31.3506 48.4308C36.1755 34.0325 51.7591 26.271 66.1581 31.0961L66.1582 31.0965Z" fill="#8B49ED"/>
</g>
<defs>
<filter id="filter0_f_0_81" x="-3" y="-3" width="119.932" height="119.932" filterUnits="userSpaceOnUse" color-interpolation-filters="sRGB">
<feFlood flood-opacity="0" result="BackgroundImageFix"/>
<feBlend mode="normal" in="SourceGraphic" in2="BackgroundImageFix" result="shape"/>
<feGaussianBlur stdDeviation="1.5" result="effect1_foregroundBlur_0_81"/>
</filter>
<clipPath id="clip0_0_81">
<rect width="90" height="90" fill="white" transform="translate(28.5959) rotate(18.5259)"/>
</clipPath>
</defs>
</svg>
