<svg width="54" height="54" viewBox="0 0 54 54" fill="none" xmlns="http://www.w3.org/2000/svg">
<path d="M46.2533 12.5877L40.6371 6.97676C39.9516 6.29121 39.034 5.90625 38.0637 5.90625C37.0934 5.90625 36.1758 6.28594 35.4902 6.97676L29.4416 13.0148C28.7561 13.7004 28.3711 14.6232 28.3711 15.5936C28.3711 16.5691 28.7508 17.4814 29.4416 18.1723L34.1666 22.9025C33.0902 25.4105 31.5436 27.6892 29.6104 29.6156C27.675 31.5615 25.4127 33.0961 22.9025 34.1824L18.1775 29.4521C17.492 28.7666 16.5744 28.3816 15.6041 28.3816C15.1255 28.3799 14.6514 28.4736 14.2095 28.6575C13.7676 28.8413 13.3668 29.1115 13.0307 29.4521L6.97676 35.4902C6.29121 36.1758 5.90625 37.0986 5.90625 38.0689C5.90625 39.0445 6.28594 39.9568 6.97676 40.6476L12.5877 46.2586C13.7584 47.4293 15.3721 48.099 17.0279 48.099C17.3707 48.099 17.7029 48.0726 18.0404 48.0146C25.0225 46.865 31.9518 43.1473 37.5469 37.5574C43.1367 31.957 46.8492 25.0277 48.0094 18.0404C48.3416 16.0576 47.6772 14.0168 46.2533 12.5877ZM44.2705 17.4129C43.2422 23.6303 39.8988 29.8318 34.8627 34.868C29.8266 39.9041 23.6303 43.2474 17.4129 44.2758C16.6324 44.4076 15.8309 44.1439 15.2613 43.5797L9.75059 38.0689L15.5936 32.2207L21.9111 38.5488L21.9586 38.5963L23.0977 38.1744C26.5514 36.9046 29.6877 34.899 32.2892 32.2965C34.8907 29.6941 36.8953 26.5571 38.1639 23.1029L38.5857 21.9639L32.2154 15.5988L38.0584 9.75058L43.5691 15.2613C44.1387 15.8309 44.4023 16.6324 44.2705 17.4129Z" fill="#CCCCCC"/>
</svg>
