<svg width="123" height="138" viewBox="0 0 123 138" fill="none" xmlns="http://www.w3.org/2000/svg">
<g filter="url(#filter0_f_0_78)">
<path d="M90.7508 53.5521L45.5584 30.0432C42.9575 28.6885 39.7491 29.701 38.3944 32.304L33.5127 41.6889L45.416 47.8818C47.2953 46.5078 49.8565 46.2232 52.0613 47.3706C54.2782 48.5257 55.5183 50.8081 55.4564 53.1484L66.929 59.1173C68.8093 57.7245 71.3918 57.426 73.609 58.5821C76.7073 60.1935 77.9114 64.009 76.2994 67.1076C74.6873 70.207 70.872 71.411 67.7715 69.7987C65.4412 68.5852 64.182 66.1212 64.3904 63.6561L53.6909 58.0894L60.4443 79.492C61.1082 79.5951 61.7698 79.8035 62.3986 80.1289C65.4962 81.7403 66.7001 85.5551 65.0897 88.6564C63.4774 91.754 59.6603 92.9586 56.5646 91.3467C53.4655 89.7318 52.2617 85.917 53.8735 82.8192C54.2722 82.0546 54.8068 81.4023 55.4323 80.8808L48.6155 59.2796C47.804 59.2129 46.9937 58.9887 46.226 58.587C43.8798 57.3675 42.624 54.885 42.8475 52.4058L31.1128 46.2994L14.9928 77.2849C13.6387 79.8893 14.6512 83.0979 17.2546 84.4519L62.4449 107.962C65.0469 109.316 68.2542 108.304 69.6103 105.7L93.0132 60.7229C94.3669 58.1192 93.3541 54.9097 90.7513 53.5552" fill="#F05133"/>
</g>
<defs>
<filter id="filter0_f_0_78" x="-19" y="-4.00003" width="146.004" height="146.004" filterUnits="userSpaceOnUse" color-interpolation-filters="sRGB">
<feFlood flood-opacity="0" result="BackgroundImageFix"/>
<feBlend mode="normal" in="SourceGraphic" in2="BackgroundImageFix" result="shape"/>
<feGaussianBlur stdDeviation="2" result="effect1_foregroundBlur_0_78"/>
</filter>
</defs>
</svg>
