<svg width="111" height="110" viewBox="0 0 111 110" fill="none" xmlns="http://www.w3.org/2000/svg">
<g clip-path="url(#clip0_0_34)" filter="url(#filter0_f_0_34)">
<path d="M87.3719 81.9128L46.001 95.355C45.3152 95.5779 44.569 95.5191 43.9265 95.1918C43.2841 94.8644 42.7979 94.2953 42.5751 93.6095C42.3523 92.9237 42.411 92.1775 42.7384 91.5351C43.0657 90.8926 43.6349 90.4065 44.3207 90.1837L85.6916 76.7414C86.3774 76.5186 87.1236 76.5773 87.7661 76.9047C88.4085 77.232 88.8946 77.8012 89.1175 78.487C89.3403 79.1727 89.2816 79.9189 88.9542 80.5614C88.6268 81.2039 88.0577 81.69 87.3719 81.9128Z" fill="#F3F3F3"/>
<path d="M85.4424 67.2935L38.8311 82.4385C35.1736 83.6268 31.194 83.3136 27.7675 81.5678C24.341 79.8219 21.7484 76.7863 20.56 73.1289L12.1474 47.2376C10.959 43.5802 11.2722 39.6005 13.0181 36.174C14.764 32.7475 17.7996 30.1549 21.457 28.9665L68.0683 13.8216C71.7257 12.6332 75.7054 12.9464 79.1319 14.6923C82.5584 16.4382 85.151 19.4737 86.3393 23.1312L94.7631 49.057C95.9404 52.7114 95.6203 56.6835 93.873 60.1022C92.1257 63.5209 89.0938 66.1071 85.4424 67.2935ZM23.1485 34.1724C20.8775 34.9203 18.9941 36.5354 17.9086 38.6658C16.8231 40.7962 16.6235 43.2692 17.3532 45.5461L25.777 71.4719C26.5168 73.7486 28.1307 75.6383 30.2637 76.7251C32.3967 77.8119 34.874 78.0069 37.1508 77.2671L83.7621 62.1222C86.0388 61.3824 87.9285 59.7685 89.0153 57.6355C90.1021 55.5025 90.2971 53.0252 89.5573 50.7484L81.1335 24.8226C80.3856 22.5516 78.7705 20.6682 76.6401 19.5827C74.5097 18.4973 72.0367 18.2977 69.7598 19.0274L23.1485 34.1724Z" fill="#F3F3F3"/>
<path d="M66.6865 88.6339C66.0007 88.8567 65.2545 88.798 64.612 88.4707C63.9696 88.1433 63.4835 87.5742 63.2606 86.8884L58.7799 73.0981C58.5571 72.4123 58.6158 71.6661 58.9432 71.0237C59.2705 70.3812 59.8397 69.8951 60.5254 69.6723C61.2112 69.4494 61.9574 69.5082 62.5999 69.8355C63.2423 70.1629 63.7284 70.732 63.9513 71.4178L68.432 85.2081C68.5474 85.5474 68.5936 85.9065 68.5679 86.2639C68.5422 86.6214 68.4452 86.9702 68.2824 87.2895C68.1197 87.6089 67.8947 87.8924 67.6205 88.1233C67.3464 88.3542 67.0288 88.5278 66.6865 88.6339Z" fill="#F3F3F3"/>
</g>
<defs>
<filter id="filter0_f_0_34" x="-1.81578" y="-2.7" width="115.026" height="115.026" filterUnits="userSpaceOnUse" color-interpolation-filters="sRGB">
<feFlood flood-opacity="0" result="BackgroundImageFix"/>
<feBlend mode="normal" in="SourceGraphic" in2="BackgroundImageFix" result="shape"/>
<feGaussianBlur stdDeviation="1.35" result="effect1_foregroundBlur_0_34"/>
</filter>
<clipPath id="clip0_0_34">
<rect width="87" height="87" fill="white" transform="translate(0.884216 26.8845) rotate(-18)"/>
</clipPath>
</defs>
</svg>
