<svg width="95" height="95" viewBox="0 0 95 95" fill="none" xmlns="http://www.w3.org/2000/svg">
<g filter="url(#filter0_f_0_14)">
<path d="M63.0392 5.04083L14.9477 16.3354C7.79689 18.0148 3.36143 25.1731 5.04084 32.3239L16.3354 80.4154C18.0148 87.5663 25.1731 92.0017 32.3239 90.3223L80.4155 79.0278C87.5663 77.3484 92.0017 70.19 90.3223 63.0392L79.0278 14.9477C77.3484 7.79687 70.19 3.36142 63.0392 5.04083Z" fill="#000058"/>
<path d="M32.4718 67.6833L25.1806 36.6379C25.1279 36.4136 25.1981 36.2788 25.3912 36.2334C27.4353 35.6857 30.3236 34.9736 34.0559 34.0971C38.3031 33.0996 41.6536 33.3438 44.1074 34.8296C46.586 36.2759 48.1676 38.4568 48.8523 41.3723C49.68 44.8966 49.0658 47.8467 47.0096 50.2227C44.9782 52.5591 42.0802 54.1694 38.3156 55.0535C37.8652 55.1593 37.3343 55.284 36.723 55.4276C36.1363 55.5315 35.8269 55.5873 35.7947 55.5949L38.3116 66.3118C38.3643 66.5361 38.2619 66.6784 38.0045 66.7389L32.8886 67.9404C32.6634 67.9933 32.5245 67.9076 32.4718 67.6833ZM31.9685 39.3032L34.745 51.1255C35.2105 51.0838 36.1511 50.8967 37.5669 50.5642C39.5939 50.0881 41.1418 49.2344 42.2106 48.003C43.2719 46.7396 43.5467 45.0186 43.0351 42.8399C42.5986 40.9817 41.6809 39.676 40.2818 38.9228C38.9073 38.13 37.1744 37.9792 35.083 38.4703C33.3777 38.8708 32.3396 39.1485 31.9685 39.3032Z" fill="#9999F9"/>
<path d="M51.5152 38.8707L56.0519 37.8052C56.3093 37.7447 56.5164 37.8313 56.6731 38.065C57.081 38.6453 57.4601 39.5366 57.8104 40.739C59.1122 37.8978 61.2915 36.1183 64.3481 35.4004C64.5734 35.3475 64.7123 35.4332 64.765 35.6575L65.9049 40.5113C65.9651 40.7676 65.8628 40.91 65.5978 40.9384C62.761 41.4356 60.7262 42.6741 59.4937 44.6539C59.2718 45.0103 59.2173 45.4287 59.3302 45.9093L62.7726 60.567C62.8253 60.7913 62.723 60.9336 62.4656 60.9941L57.3979 62.1842C57.1084 62.2522 56.9335 62.1581 56.8733 61.9018L53.0584 45.6582C52.4489 43.0631 51.8643 40.9354 51.3047 39.2751C51.2198 39.0584 51.29 38.9236 51.5152 38.8707Z" fill="#9999F9"/>
</g>
<defs>
<filter id="filter0_f_0_14" x="-2" y="-2.00002" width="99.3632" height="99.3632" filterUnits="userSpaceOnUse" color-interpolation-filters="sRGB">
<feFlood flood-opacity="0" result="BackgroundImageFix"/>
<feBlend mode="normal" in="SourceGraphic" in2="BackgroundImageFix" result="shape"/>
<feGaussianBlur stdDeviation="2" result="effect1_foregroundBlur_0_14"/>
</filter>
</defs>
</svg>
